<?xml version="1.0" encoding="UTF-8" standalone="no"?>
<svg
   xmlns:dc="http://purl.org/dc/elements/1.1/"
   xmlns:cc="http://creativecommons.org/ns#"
   xmlns:rdf="http://www.w3.org/1999/02/22-rdf-syntax-ns#"
   xmlns:svg="http://www.w3.org/2000/svg"
   xmlns="http://www.w3.org/2000/svg"
   xmlns:sodipodi="http://sodipodi.sourceforge.net/DTD/sodipodi-0.dtd"
   xmlns:inkscape="http://www.inkscape.org/namespaces/inkscape"
   height="1mm"
   version="1.1"
   viewBox="0 0 1 1"
   width="1mm"
   id="svg881"
   sodipodi:docname="charset_roman-japanese_qwerty-colemak.svg"
   inkscape:version="0.92.5 (2060ec1f9f, 2020-04-08)">
  <metadata
     id="metadata887">
    <rdf:RDF>
      <cc:Work
         rdf:about="">
        <dc:format>image/svg+xml</dc:format>
        <dc:type
           rdf:resource="http://purl.org/dc/dcmitype/StillImage" />
        <dc:title />
      </cc:Work>
    </rdf:RDF>
  </metadata>
  <defs
     id="defs885">
    <marker
       inkscape:stockid="DotS"
       orient="auto"
       refY="0.0"
       refX="0.0"
       id="marker1275"
       style="overflow:visible"
       inkscape:isstock="true">
      <path
         id="path1273"
         d="M -2.5,-1.0 C -2.5,1.7600000 -4.7400000,4.0 -7.5,4.0 C -10.260000,4.0 -12.5,1.7600000 -12.5,-1.0 C -12.5,-3.7600000 -10.260000,-6.0 -7.5,-6.0 C -4.7400000,-6.0 -2.5,-3.7600000 -2.5,-1.0 z "
         style="fill-rule:evenodd;stroke:#000000;stroke-width:1pt;stroke-opacity:1;fill:#000000;fill-opacity:1"
         transform="scale(0.2) translate(7.4, 1)" />
    </marker>
    <marker
       inkscape:stockid="DotS"
       orient="auto"
       refY="0.0"
       refX="0.0"
       id="DotS"
       style="overflow:visible"
       inkscape:isstock="true">
      <path
         id="path1070"
         d="M -2.5,-1.0 C -2.5,1.7600000 -4.7400000,4.0 -7.5,4.0 C -10.260000,4.0 -12.5,1.7600000 -12.5,-1.0 C -12.5,-3.7600000 -10.260000,-6.0 -7.5,-6.0 C -4.7400000,-6.0 -2.5,-3.7600000 -2.5,-1.0 z "
         style="fill-rule:evenodd;stroke:#000000;stroke-width:1pt;stroke-opacity:1;fill:#000000;fill-opacity:1"
         transform="scale(0.2) translate(7.4, 1)" />
    </marker>
    <marker
       inkscape:stockid="Arrow2Mstart"
       orient="auto"
       refY="0.0"
       refX="0.0"
       id="Arrow2Mstart"
       style="overflow:visible"
       inkscape:isstock="true">
      <path
         id="path1027"
         style="fill-rule:evenodd;stroke-width:0.625;stroke-linejoin:round;stroke:#000000;stroke-opacity:1;fill:#000000;fill-opacity:1"
         d="M 8.7185878,4.0337352 L -2.2072895,0.016013256 L 8.7185884,-4.0017078 C 6.9730900,-1.6296469 6.9831476,1.6157441 8.7185878,4.0337352 z "
         transform="scale(0.6) translate(0,0)" />
    </marker>
    <marker
       inkscape:stockid="Arrow1Sstart"
       orient="auto"
       refY="0.0"
       refX="0.0"
       id="Arrow1Sstart"
       style="overflow:visible"
       inkscape:isstock="true">
      <path
         id="path1015"
         d="M 0.0,0.0 L 5.0,-5.0 L -12.5,0.0 L 5.0,5.0 L 0.0,0.0 z "
         style="fill-rule:evenodd;stroke:#000000;stroke-width:1pt;stroke-opacity:1;fill:#000000;fill-opacity:1"
         transform="scale(0.2) translate(6,0)" />
    </marker>
    <marker
       inkscape:stockid="Arrow1Lstart"
       orient="auto"
       refY="0.0"
       refX="0.0"
       id="Arrow1Lstart"
       style="overflow:visible"
       inkscape:isstock="true">
      <path
         id="path1003"
         d="M 0.0,0.0 L 5.0,-5.0 L -12.5,0.0 L 5.0,5.0 L 0.0,0.0 z "
         style="fill-rule:evenodd;stroke:#000000;stroke-width:1pt;stroke-opacity:1;fill:#000000;fill-opacity:1"
         transform="scale(0.8) translate(12.5,0)" />
    </marker>
    <marker
       inkscape:stockid="DotS"
       orient="auto"
       refY="0"
       refX="0"
       id="marker1275-3"
       style="overflow:visible"
       inkscape:isstock="true">
      <path
         inkscape:connector-curvature="0"
         id="path1273-6"
         d="m -2.5,-1 c 0,2.76 -2.24,5 -5,5 -2.76,0 -5,-2.24 -5,-5 0,-2.76 2.24,-5 5,-5 2.76,0 5,2.24 5,5 z"
         style="fill:#000000;fill-opacity:1;fill-rule:evenodd;stroke:#000000;stroke-width:1.00000003pt;stroke-opacity:1"
         transform="matrix(0.2,0,0,0.2,1.48,0.2)" />
    </marker>
    <marker
       inkscape:stockid="DotS"
       orient="auto"
       refY="0"
       refX="0"
       id="DotS-7"
       style="overflow:visible"
       inkscape:isstock="true">
      <path
         inkscape:connector-curvature="0"
         id="path1070-5"
         d="m -2.5,-1 c 0,2.76 -2.24,5 -5,5 -2.76,0 -5,-2.24 -5,-5 0,-2.76 2.24,-5 5,-5 2.76,0 5,2.24 5,5 z"
         style="fill:#000000;fill-opacity:1;fill-rule:evenodd;stroke:#000000;stroke-width:1.00000003pt;stroke-opacity:1"
         transform="matrix(0.2,0,0,0.2,1.48,0.2)" />
    </marker>
  </defs>
  <sodipodi:namedview
     pagecolor="#ffffff"
     bordercolor="#666666"
     borderopacity="1"
     objecttolerance="10"
     gridtolerance="10"
     guidetolerance="10"
     inkscape:pageopacity="0"
     inkscape:pageshadow="2"
     inkscape:window-width="1908"
     inkscape:window-height="2139"
     id="namedview883"
     showgrid="false"
     inkscape:zoom="16"
     inkscape:cx="29.559977"
     inkscape:cy="-10.609819"
     inkscape:window-x="1925"
     inkscape:window-y="14"
     inkscape:window-maximized="1"
     inkscape:current-layer="svg881" />
  <text
     xml:space="preserve"
     style="font-style:normal;font-weight:normal;font-size:5.26558542px;line-height:1.25;font-family:sans-serif;letter-spacing:0px;word-spacing:0px;fill:#000000;fill-opacity:1;stroke:none;stroke-width:0.13163963"
     x="-1.6365451"
     y="5.5992503"
     id="text987"><tspan
       sodipodi:role="line"
       id="tspan985"
       x="-1.6365451"
       y="5.5992503"
       style="stroke-width:0.13163963">A</tspan></text>
  <text
     xml:space="preserve"
     style="font-style:normal;font-weight:normal;font-size:5.26558542px;line-height:1.25;font-family:sans-serif;letter-spacing:0px;word-spacing:0px;fill:#000000;fill-opacity:1;stroke:none;stroke-width:0.13163963"
     x="-5.31988"
     y="2.7662981"
     id="text991"><tspan
       sodipodi:role="line"
       id="tspan989"
       x="-5.31988"
       y="2.7662981"
       style="stroke-width:0.13163963">あ</tspan></text>
  <text
     xml:space="preserve"
     style="font-style:normal;font-weight:normal;font-size:3.60214448px;line-height:1.25;font-family:sans-serif;letter-spacing:0px;word-spacing:0px;fill:#000000;fill-opacity:1;stroke:none;stroke-width:0.0900536"
     x="2.1717689"
     y="1.4201418"
     id="text995"><tspan
       sodipodi:role="line"
       id="tspan993"
       x="2.1717689"
       y="1.4201418"
       style="stroke-width:0.0900536">E</tspan></text>
  <text
     xml:space="preserve"
     style="font-style:normal;font-weight:normal;font-size:3.60214448px;line-height:1.25;font-family:sans-serif;letter-spacing:0px;word-spacing:0px;fill:#000000;fill-opacity:1;stroke:none;stroke-width:0.0900536"
     x="0.6201492"
     y="-0.68588841"
     id="text999"><tspan
       sodipodi:role="line"
       id="tspan997"
       x="0.6201492"
       y="-0.68588841"
       style="stroke-width:0.0900536">F</tspan></text>
  <g
     id="g3080">
    <path
       style="color:#000000;font-style:normal;font-variant:normal;font-weight:normal;font-stretch:normal;font-size:medium;line-height:normal;font-family:sans-serif;font-variant-ligatures:normal;font-variant-position:normal;font-variant-caps:normal;font-variant-numeric:normal;font-variant-alternates:normal;font-feature-settings:normal;text-indent:0;text-align:start;text-decoration:none;text-decoration-line:none;text-decoration-style:solid;text-decoration-color:#000000;letter-spacing:normal;word-spacing:normal;text-transform:none;writing-mode:lr-tb;direction:ltr;text-orientation:mixed;dominant-baseline:auto;baseline-shift:baseline;text-anchor:start;white-space:normal;shape-padding:0;clip-rule:nonzero;display:inline;overflow:visible;visibility:visible;opacity:1;isolation:auto;mix-blend-mode:normal;color-interpolation:sRGB;color-interpolation-filters:linearRGB;solid-color:#000000;solid-opacity:1;vector-effect:none;fill:#000000;fill-opacity:1;fill-rule:nonzero;stroke:none;stroke-width:0.26499999;stroke-linecap:butt;stroke-linejoin:miter;stroke-miterlimit:4;stroke-dasharray:none;stroke-dashoffset:0;stroke-opacity:1;color-rendering:auto;image-rendering:auto;shape-rendering:auto;text-rendering:auto;enable-background:accumulate"
       d="m -4.0019531,3.8125 c -0.2308983,0.4076328 -0.080969,0.9125727 0.2226562,1.2539062 0.303625,0.3413336 0.8014708,0.5368649 1.2636719,0.2832032 L -2.6425781,5.1171875 C -2.986699,5.3060453 -3.3368269,5.1662824 -3.5820312,4.890625 -3.8272356,4.6149676 -3.9294648,4.2222616 -3.7714844,3.9433594 Z"
       id="path1001"
       inkscape:connector-curvature="0" />
    <path
       style="fill:#000000;fill-opacity:1;fill-rule:evenodd;stroke:#000000;stroke-width:0.053pt;stroke-opacity:1"
       d="m -4.0140637,4.1033108 c -0.1272794,-0.072096 -0.1720662,-0.2339074 -0.09997,-0.3611868 0.072096,-0.1272794 0.2339074,-0.1720661 0.3611868,-0.09997 0.1272794,0.072096 0.1720661,0.2339074 0.09997,0.3611868 -0.072096,0.1272794 -0.2339075,0.1720662 -0.3611868,0.09997 z"
       id="path3086"
       inkscape:connector-curvature="0" />
    <path
       style="fill:#000000;fill-opacity:1;fill-rule:evenodd;stroke:#000000;stroke-width:0.053pt;stroke-opacity:1"
       d="m -2.3520201,5.1083867 c 0.070378,0.1282372 0.02342,0.2894321 -0.104817,0.3598102 -0.1282371,0.070378 -0.2894321,0.02342 -0.3598102,-0.104817 -0.070378,-0.1282371 -0.02342,-0.2894321 0.104817,-0.3598102 0.1282372,-0.070378 0.2894321,-0.02342 0.3598102,0.104817 z"
       id="path3088"
       inkscape:connector-curvature="0" />
  </g>
  <g
     id="g3016">
    <path
       style="color:#000000;font-style:normal;font-variant:normal;font-weight:normal;font-stretch:normal;font-size:medium;line-height:normal;font-family:sans-serif;font-variant-ligatures:normal;font-variant-position:normal;font-variant-caps:normal;font-variant-numeric:normal;font-variant-alternates:normal;font-feature-settings:normal;text-indent:0;text-align:start;text-decoration:none;text-decoration-line:none;text-decoration-style:solid;text-decoration-color:#000000;letter-spacing:normal;word-spacing:normal;text-transform:none;writing-mode:lr-tb;direction:ltr;text-orientation:mixed;dominant-baseline:auto;baseline-shift:baseline;text-anchor:start;white-space:normal;shape-padding:0;clip-rule:nonzero;display:inline;overflow:visible;visibility:visible;opacity:1;isolation:auto;mix-blend-mode:normal;color-interpolation:sRGB;color-interpolation-filters:linearRGB;solid-color:#000000;solid-opacity:1;vector-effect:none;fill:#000000;fill-opacity:1;fill-rule:nonzero;stroke:none;stroke-width:0.19358386;stroke-linecap:butt;stroke-linejoin:miter;stroke-miterlimit:4;stroke-dasharray:none;stroke-dashoffset:0;stroke-opacity:1;color-rendering:auto;image-rendering:auto;shape-rendering:auto;text-rendering:auto;enable-background:accumulate"
       d="m 3.1875,-2.9707031 0.09375,0.1699219 c 0.2513821,-0.1379616 0.5064238,-0.035354 0.6855469,0.1660156 0.179123,0.2013691 0.2540774,0.4876668 0.1386719,0.6914062 l 0.1679687,0.095703 C 4.4421099,-2.1454341 4.3331277,-2.514326 4.1113281,-2.7636719 3.8895285,-3.0130178 3.5251404,-3.1560043 3.1875,-2.9707031 Z"
       id="path1001-3"
       inkscape:connector-curvature="0" />
    <path
       style="fill:#000000;fill-opacity:1;fill-rule:evenodd;stroke:#000000;stroke-width:0.03871677pt;stroke-opacity:1"
       d="m 4.2827152,-2.060515 c 0.092978,0.052666 0.1256952,0.1708706 0.073029,0.2638489 -0.052666,0.092978 -0.1708706,0.1256951 -0.2638489,0.073029 -0.092978,-0.052666 -0.1256952,-0.1708706 -0.073029,-0.2638488 0.052666,-0.092978 0.1708706,-0.1256952 0.2638489,-0.073029 z"
       id="path3022"
       inkscape:connector-curvature="0" />
    <path
       style="fill:#000000;fill-opacity:1;fill-rule:evenodd;stroke:#000000;stroke-width:0.03871677pt;stroke-opacity:1"
       d="m 3.0685836,-2.7947282 c -0.051412,-0.093678 -0.017108,-0.2114316 0.076569,-0.2628431 0.093678,-0.051412 0.2114317,-0.017108 0.2628432,0.076569 0.051412,0.093678 0.017108,0.2114316 -0.076569,0.2628432 -0.093678,0.051411 -0.2114316,0.017108 -0.2628432,-0.076569 z"
       id="path3024"
       inkscape:connector-curvature="0" />
  </g>
</svg>
