<?xml version="1.0" encoding="UTF-8" standalone="no"?>
<svg
   xmlns:dc="http://purl.org/dc/elements/1.1/"
   xmlns:cc="http://creativecommons.org/ns#"
   xmlns:rdf="http://www.w3.org/1999/02/22-rdf-syntax-ns#"
   xmlns:svg="http://www.w3.org/2000/svg"
   xmlns="http://www.w3.org/2000/svg"
   xmlns:sodipodi="http://sodipodi.sourceforge.net/DTD/sodipodi-0.dtd"
   xmlns:inkscape="http://www.inkscape.org/namespaces/inkscape"
   height="1mm"
   version="1.1"
   viewBox="0 0 1 1"
   width="1mm"
   id="svg881"
   sodipodi:docname="mouse_acceleration1.svg"
   inkscape:version="1.0.1 (3bc2e813f5, 2020-09-07)">
  <metadata
     id="metadata887">
    <rdf:RDF>
      <cc:Work
         rdf:about="">
        <dc:format>image/svg+xml</dc:format>
        <dc:type
           rdf:resource="http://purl.org/dc/dcmitype/StillImage" />
        <dc:title />
      </cc:Work>
    </rdf:RDF>
  </metadata>
  <defs
     id="defs885" />
  <sodipodi:namedview
     pagecolor="#ffffff"
     bordercolor="#666666"
     borderopacity="1"
     objecttolerance="10"
     gridtolerance="10"
     guidetolerance="10"
     inkscape:pageopacity="0"
     inkscape:pageshadow="2"
     inkscape:window-width="952"
     inkscape:window-height="2139"
     id="namedview883"
     showgrid="false"
     inkscape:zoom="2.4573551"
     inkscape:cx="-11.796428"
     inkscape:cy="-5.5965139"
     inkscape:window-x="0"
     inkscape:window-y="0"
     inkscape:window-maximized="1"
     inkscape:current-layer="svg881"
     inkscape:document-rotation="0" />
  <path
     style="color:#000000;font-style:normal;font-variant:normal;font-weight:normal;font-stretch:normal;font-size:medium;line-height:normal;font-family:sans-serif;font-variant-ligatures:normal;font-variant-position:normal;font-variant-caps:normal;font-variant-numeric:normal;font-variant-alternates:normal;font-feature-settings:normal;text-indent:0;text-align:start;text-decoration:none;text-decoration-line:none;text-decoration-style:solid;text-decoration-color:#000000;letter-spacing:normal;word-spacing:normal;text-transform:none;writing-mode:lr-tb;direction:ltr;text-orientation:mixed;dominant-baseline:auto;baseline-shift:baseline;text-anchor:start;white-space:normal;shape-padding:0;clip-rule:nonzero;display:inline;overflow:visible;visibility:visible;opacity:1;isolation:auto;mix-blend-mode:normal;color-interpolation:sRGB;color-interpolation-filters:linearRGB;solid-color:#000000;solid-opacity:1;vector-effect:none;fill:#000000;fill-opacity:1;fill-rule:nonzero;stroke:none;stroke-width:0.3175;stroke-linecap:butt;stroke-linejoin:miter;stroke-miterlimit:4;stroke-dasharray:none;stroke-dashoffset:0;stroke-opacity:1;color-rendering:auto;image-rendering:auto;shape-rendering:auto;text-rendering:auto;enable-background:accumulate"
     d="m 1.101599,-1.0525418 c -0.87083367,0 -1.43153136,0.20506625 -1.76371656,0.59169507 -0.33218515,0.38662873 -0.41186114,0.91673921 -0.41186114,1.51205243 0,0.5950871 0.078985,1.4823812 0.38653967,2.2422404 0.15377739,0.3799297 0.3651291,0.7290538 0.66197512,0.9880534 0.29684609,0.2589995 0.68172548,0.4216796 1.14670001,0.4216796 0.4645949,0 0.8493128,-0.1616744 1.1446329,-0.4196125 C 2.561189,4.0256286 2.7696293,3.6760656 2.9200926,3.2949964 3.2210185,2.5328583 3.2899226,1.6380373 3.2792438,1.0119316 3.2686023,0.38802948 3.1898223,-0.13289205 2.8575641,-0.50373815 2.5253057,-0.87458425 1.9693575,-1.0525418 1.101599,-1.0525418 Z m 0,0.31832675 c 0.2198018,0 0.4108966,0.012304 0.5803263,0.034623 L 1.5356811,0.84243288 c -0.2342534,-0.0111705 -0.4612505,-0.0156494 -0.67437753,-0.008268 -0.076197,0.002639 -0.1472846,0.009855 -0.2211751,0.0144694 L 0.49440102,-0.69029005 c 0.17632985,-0.027759 0.37537325,-0.043925 0.60719798,-0.043925 z m 0.8940021,0.096118 c 0.2876809,0.075493 0.4886449,0.19211272 0.6258018,0.34519862 0.2486681,0.27754791 0.3313726,0.71200363 0.341581,1.31051423 5.34e-5,0.00313 -4.87e-5,0.00719 0,0.010335 C 2.5655721,0.94708819 2.1952435,0.89184512 1.8534911,0.86258669 Z m -1.81435929,0.018604 0.14159341,1.49189857 c -0.38138136,0.03826 -0.73599241,0.0984678 -1.08003741,0.16639798 0.001263,-0.55934991 0.08339,-0.99913752 0.33538003,-1.29242753 0.13565135,-0.1578839 0.32937011,-0.28245622 0.60306397,-0.36586902 z M -2.4206981,0.67496038 C -2.5271062,2.0777101 -2.2587339,3.3781496 -1.6801748,4.517103 L -1.3969879,4.372409 C -1.9492623,3.2852 -2.2067096,2.0469455 -2.1044383,0.69873144 Z M 1.3656656,1.1473238 C 1.8352275,1.1617724 2.3604441,1.2253569 2.9562661,1.3504122 2.9385523,1.9117528 2.8537613,2.6004383 2.6250202,3.179758 2.4873409,3.5284501 2.3004281,3.8323563 2.0565794,4.0453382 1.8127308,4.2583204 1.5146655,4.3848523 1.1212361,4.3848523 c -0.39304963,0 -0.69143246,-0.126964 -0.93741047,-0.341581 C -0.06215239,3.8286542 -0.25345764,3.5223755 -0.39443365,3.1740735 -0.63042055,2.5910332 -0.7215022,1.9030205 -0.74635015,1.3591972 -0.10014269,1.2296738 0.55876602,1.1224951 1.3656656,1.1473238 Z M -3.764424,1.4840493 c -0.044047,0.8086847 0.037335,1.7424623 0.5839438,3.0354738 l 0.2930053,-0.12299 C -3.4173526,3.1430989 -3.4883276,2.275399 -3.4460972,1.500069 Z"
     id="path942"
     inkscape:connector-curvature="0"
     sodipodi:nodetypes="ssssssssssssccsccscscccccccsccccccscssssscsccccc" />
</svg>
