<?xml version="1.0" encoding="UTF-8" standalone="no"?>
<svg
   xmlns:dc="http://purl.org/dc/elements/1.1/"
   xmlns:cc="http://creativecommons.org/ns#"
   xmlns:rdf="http://www.w3.org/1999/02/22-rdf-syntax-ns#"
   xmlns:svg="http://www.w3.org/2000/svg"
   xmlns="http://www.w3.org/2000/svg"
   xmlns:sodipodi="http://sodipodi.sourceforge.net/DTD/sodipodi-0.dtd"
   xmlns:inkscape="http://www.inkscape.org/namespaces/inkscape"
   height="1mm"
   version="1.1"
   viewBox="0 0 1 1"
   width="1mm"
   id="svg881"
   sodipodi:docname="mouse_acceleration0.svg"
   inkscape:version="1.0.1 (3bc2e813f5, 2020-09-07)">
  <metadata
     id="metadata887">
    <rdf:RDF>
      <cc:Work
         rdf:about="">
        <dc:format>image/svg+xml</dc:format>
        <dc:type
           rdf:resource="http://purl.org/dc/dcmitype/StillImage" />
        <dc:title />
      </cc:Work>
    </rdf:RDF>
  </metadata>
  <defs
     id="defs885" />
  <sodipodi:namedview
     pagecolor="#ffffff"
     bordercolor="#666666"
     borderopacity="1"
     objecttolerance="10"
     gridtolerance="10"
     guidetolerance="10"
     inkscape:pageopacity="0"
     inkscape:pageshadow="2"
     inkscape:window-width="952"
     inkscape:window-height="2139"
     id="namedview883"
     showgrid="false"
     inkscape:zoom="3.2990407"
     inkscape:cx="-1.6470688"
     inkscape:cy="-1.4462145"
     inkscape:window-x="0"
     inkscape:window-y="0"
     inkscape:window-maximized="1"
     inkscape:current-layer="svg881"
     inkscape:document-rotation="0" />
  <path
     style="color:#000000;font-style:normal;font-variant:normal;font-weight:normal;font-stretch:normal;font-size:medium;line-height:normal;font-family:sans-serif;font-variant-ligatures:normal;font-variant-position:normal;font-variant-caps:normal;font-variant-numeric:normal;font-variant-alternates:normal;font-feature-settings:normal;text-indent:0;text-align:start;text-decoration:none;text-decoration-line:none;text-decoration-style:solid;text-decoration-color:#000000;letter-spacing:normal;word-spacing:normal;text-transform:none;writing-mode:lr-tb;direction:ltr;text-orientation:mixed;dominant-baseline:auto;baseline-shift:baseline;text-anchor:start;white-space:normal;shape-padding:0;clip-rule:nonzero;display:inline;overflow:visible;visibility:visible;opacity:1;isolation:auto;mix-blend-mode:normal;color-interpolation:sRGB;color-interpolation-filters:linearRGB;solid-color:#000000;solid-opacity:1;vector-effect:none;fill:#000000;fill-opacity:1;fill-rule:nonzero;stroke:none;stroke-width:0.3175;stroke-linecap:butt;stroke-linejoin:miter;stroke-miterlimit:4;stroke-dasharray:none;stroke-dashoffset:0;stroke-opacity:1;color-rendering:auto;image-rendering:auto;shape-rendering:auto;text-rendering:auto;enable-background:accumulate"
     d="m 0.71842896,-1.120664 c -0.87083372,0 -1.43153141,0.20506635 -1.76371656,0.59169515 -0.3321852,0.38662872 -0.4118611,0.9167392 -0.4118611,1.51205237 0,0.59508708 0.078985,1.48238118 0.3865395,2.24224038 0.15377748,0.3799297 0.36512918,0.7290538 0.66197519,0.9880533 0.2968461,0.2589996 0.68172552,0.4216797 1.14670003,0.4216797 0.46459498,0 0.84931288,-0.1616744 1.14463308,-0.4196125 0.29532,-0.257938 0.5037604,-0.607501 0.6542236,-0.9885702 C 2.8378487,2.4647361 2.9067528,1.5699152 2.8960739,0.94380943 2.8854324,0.31990734 2.8066524,-0.20101419 2.4743943,-0.57186035 2.1421358,-0.94270645 1.5861875,-1.120664 0.71842896,-1.120664 Z m 0,0.31832675 c 0.2198018,0 0.41089664,0.012304 0.58032634,0.034623 L 1.1525111,0.77431074 c -0.23425344,-0.0111705 -0.46125056,-0.0156494 -0.67437754,-0.008268 -0.0761968,0.002639 -0.14728468,0.009855 -0.22117513,0.0144694 L 0.11123088,-0.75841225 c 0.17632998,-0.027759 0.3753734,-0.043925 0.60719808,-0.043925 z m 0.89400224,0.096118 c 0.287681,0.075493 0.488645,0.1921127 0.6258018,0.3451986 0.2486681,0.27754799 0.3313726,0.71200371 0.341581,1.31051429 5.35e-5,0.003134 -4.86e-5,0.007186 0,0.0103353 C 2.1824022,0.87896605 1.8120737,0.82372297 1.4703212,0.79446455 Z m -1.81435948,0.018603 0.14159341,1.49189862 c -0.38138137,0.0382601 -0.7359924,0.0984679 -1.08003733,0.16639811 0.00126,-0.55934993 0.08339,-0.99913753 0.33537996,-1.29242763 0.13565134,-0.1578839 0.3293701,-0.2824562 0.60306396,-0.3658691 z M 0.98249556,1.0792017 C 1.4520575,1.0936503 1.9772742,1.1572348 2.5730963,1.2822901 2.5553832,1.8436306 2.4705914,2.5323161 2.2418504,3.1116358 2.104171,3.4603278 1.9172582,3.7642341 1.6734095,3.977216 1.4295608,4.1901981 1.1314955,4.3167301 0.73806602,4.3167301 0.3450164,4.3167301 0.04663355,4.1897661 -0.19934446,3.975149 -0.44532248,3.760532 -0.63662774,3.4542533 -0.77760374,3.1059514 -1.0135906,2.5229111 -1.1046722,1.8348983 -1.1295202,1.2910751 -0.48331278,1.1615516 0.17559588,1.054373 0.98249556,1.0792017 Z M -3.1658781,1.5027745 c -0.0533,1.2771049 0.1323092,2.1094138 0.6934977,3.126941 L -2.1948779,4.4752028 C -2.7358794,3.4942778 -2.8994017,2.7585824 -2.8475513,1.5162103 Z"
     id="path942"
     inkscape:connector-curvature="0"
     sodipodi:nodetypes="ssssssssssssccsccscscccccccscscssssscsccccc" />
</svg>
