<?xml version="1.0" encoding="UTF-8" standalone="no"?>
<svg
   xmlns:dc="http://purl.org/dc/elements/1.1/"
   xmlns:cc="http://creativecommons.org/ns#"
   xmlns:rdf="http://www.w3.org/1999/02/22-rdf-syntax-ns#"
   xmlns:svg="http://www.w3.org/2000/svg"
   xmlns="http://www.w3.org/2000/svg"
   xmlns:sodipodi="http://sodipodi.sourceforge.net/DTD/sodipodi-0.dtd"
   xmlns:inkscape="http://www.inkscape.org/namespaces/inkscape"
   height="1mm"
   version="1.1"
   viewBox="0 0 1 1"
   width="1mm"
   id="svg881"
   sodipodi:docname="mouse_button1.svg"
   inkscape:version="0.92.5 (2060ec1f9f, 2020-04-08)">
  <metadata
     id="metadata887">
    <rdf:RDF>
      <cc:Work
         rdf:about="">
        <dc:format>image/svg+xml</dc:format>
        <dc:type
           rdf:resource="http://purl.org/dc/dcmitype/StillImage" />
        <dc:title />
      </cc:Work>
    </rdf:RDF>
  </metadata>
  <defs
     id="defs885" />
  <sodipodi:namedview
     pagecolor="#ffffff"
     bordercolor="#666666"
     borderopacity="1"
     objecttolerance="10"
     gridtolerance="10"
     guidetolerance="10"
     inkscape:pageopacity="0"
     inkscape:pageshadow="2"
     inkscape:window-width="839"
     inkscape:window-height="1062"
     id="namedview883"
     showgrid="false"
     inkscape:zoom="6.4338776"
     inkscape:cx="-1.849031"
     inkscape:cy="16.37391"
     inkscape:window-x="2151"
     inkscape:window-y="14"
     inkscape:window-maximized="1"
     inkscape:current-layer="svg881" />
  <path
     style="color:#000000;font-style:normal;font-variant:normal;font-weight:normal;font-stretch:normal;font-size:medium;line-height:normal;font-family:sans-serif;font-variant-ligatures:normal;font-variant-position:normal;font-variant-caps:normal;font-variant-numeric:normal;font-variant-alternates:normal;font-feature-settings:normal;text-indent:0;text-align:start;text-decoration:none;text-decoration-line:none;text-decoration-style:solid;text-decoration-color:#000000;letter-spacing:normal;word-spacing:normal;text-transform:none;writing-mode:lr-tb;direction:ltr;text-orientation:mixed;dominant-baseline:auto;baseline-shift:baseline;text-anchor:start;white-space:normal;shape-padding:0;clip-rule:nonzero;display:inline;overflow:visible;visibility:visible;opacity:1;isolation:auto;mix-blend-mode:normal;color-interpolation:sRGB;color-interpolation-filters:linearRGB;solid-color:#000000;solid-opacity:1;vector-effect:none;fill:#000000;fill-opacity:1;fill-rule:nonzero;stroke:none;stroke-width:0.40000001;stroke-linecap:butt;stroke-linejoin:miter;stroke-miterlimit:4;stroke-dasharray:none;stroke-dashoffset:0;stroke-opacity:1;color-rendering:auto;image-rendering:auto;shape-rendering:auto;text-rendering:auto;enable-background:accumulate"
     d="m 0.48749806,-1.9694172 c -1.10451511,0 -1.81704206,0.2618175 -2.23810626,0.7518921 -0.4210641,0.4900746 -0.5234823,1.16108473 -0.5234823,1.91616209 0,0.75479251 0.099844,1.88008211 0.4898927,2.84375421 0.1950242,0.4818358 0.4654561,0.9253002 0.84180895,1.2536701 0.3763529,0.3283696 0.86359466,0.5333008 1.4531413,0.5333008 0.58906825,0 1.07510945,-0.2042134 1.44952395,-0.5312339 C 2.3346909,4.4711077 2.6014471,4.0292867 2.792267,3.5460083 3.1739065,2.5794519 3.2610814,1.4421341 3.2475363,0.64799408 3.2340386,-0.14336978 3.1333019,-0.80380941 2.7121685,-1.2738524 2.2910351,-1.7438955 1.5881388,-1.9694172 0.48749806,-1.9694172 Z m 0,0.4004924 c 0.30911861,0 0.57165874,0.020397 0.80253494,0.055294 L 1.1003806,0.50691743 C 0.78122318,0.48930013 0.47294831,0.48142053 0.18467416,0.49141453 c -0.1197325,0.004151 -0.23243601,0.0142378 -0.34778238,0.0222209 L -0.354311,-1.5001952 c 0.24040089,-0.043256 0.51549339,-0.06873 0.84180906,-0.06873 z m 1.06350104,0.1043864 c 0.403003,0.095091 0.6772695,0.251133 0.8624796,0.4578531 0.315823,0.35250216 0.4221634,0.90305628 0.4351156,1.66243085 4.392e-4,0.025721 -0.00174,0.0582508 -0.00155,0.0847493 C 2.3122249,0.6309317 1.819228,0.56049717 1.3644471,0.52397065 Z M 0.82391164,0.75238047 C 1.420527,0.7705965 2.0869583,0.85110905 2.8413596,1.0086956 2.8240696,1.7325701 2.7191174,2.6400873 2.4191631,3.3997641 2.244449,3.8422522 2.0078457,4.2269883 1.6982769,4.4973713 1.388708,4.7677546 1.0101636,4.9309366 0.51075245,4.9309366 c -0.49893265,0 -0.87887449,-0.1652444 -1.1911417,-0.4376991 C -0.99265655,4.2207825 -1.2337478,3.8340027 -1.4126443,3.3920126 -1.7223961,2.6267252 -1.8353683,1.7198818 -1.8617125,1.0205812 -1.0431475,0.85682143 -0.20289777,0.72102964 0.82391164,0.75238047 Z"
     id="path942"
     inkscape:connector-curvature="0"
     sodipodi:nodetypes="ssssssssssssccsccscsscccscssssscs" />
</svg>
