<?xml version="1.0" encoding="UTF-8" standalone="no"?>
<svg
   height="1mm"
   version="1.1"
   viewBox="0 0 1 1"
   width="1mm"
   id="svg881"
   sodipodi:docname="penguin.svg"
   inkscape:version="1.2.2 (b0a8486541, 2022-12-01)"
   xmlns:inkscape="http://www.inkscape.org/namespaces/inkscape"
   xmlns:sodipodi="http://sodipodi.sourceforge.net/DTD/sodipodi-0.dtd"
   xmlns="http://www.w3.org/2000/svg"
   xmlns:svg="http://www.w3.org/2000/svg"
   xmlns:rdf="http://www.w3.org/1999/02/22-rdf-syntax-ns#"
   xmlns:cc="http://creativecommons.org/ns#"
   xmlns:dc="http://purl.org/dc/elements/1.1/">
  <metadata
     id="metadata887">
    <rdf:RDF>
      <cc:Work
         rdf:about="">
        <dc:format>image/svg+xml</dc:format>
        <dc:type
           rdf:resource="http://purl.org/dc/dcmitype/StillImage" />
        <dc:title />
      </cc:Work>
    </rdf:RDF>
  </metadata>
  <defs
     id="defs885" />
  <sodipodi:namedview
     pagecolor="#ffffff"
     bordercolor="#666666"
     borderopacity="1"
     objecttolerance="10"
     gridtolerance="10"
     guidetolerance="10"
     inkscape:pageopacity="0"
     inkscape:pageshadow="2"
     inkscape:window-width="2036"
     inkscape:window-height="702"
     id="namedview883"
     showgrid="false"
     inkscape:zoom="9.777961"
     inkscape:cx="-22.346172"
     inkscape:cy="6.3407903"
     inkscape:window-x="0"
     inkscape:window-y="0"
     inkscape:window-maximized="0"
     inkscape:current-layer="svg881"
     inkscape:showpageshadow="2"
     inkscape:pagecheckerboard="0"
     inkscape:deskcolor="#d1d1d1"
     inkscape:document-units="mm" />
  <path
     style="fill:#000000;fill-opacity:1;stroke:none;stroke-width:0.212341px;stroke-linecap:butt;stroke-linejoin:miter;stroke-opacity:1"
     d="m 0.26136834,-2.9844917 c -0.65946543,-0.00827 -1.34974744,0.341608 -1.66097294,1.7079902 -0.3112254,1.36638225 -2.0768503,3.4863775 -2.2842737,4.376341 0.4023154,-0.289607 0.8608232,-0.7652403 1.2207365,-0.9957183 -0.048133,0.3049284 -0.6511718,1.7542755 0.4374169,2.5339661 C -1.316577,5.1460072 1.733004,4.9259742 2.1757443,4.7572992 3.0898472,4.4090447 3.0520796,3.0900004 2.8738598,2.5316023 3.1353773,2.7843603 3.3621432,2.9260427 3.5737498,2.9839526 3.2437794,2.4449563 1.8571299,0.43574098 1.6596383,-1.2297026 1.4519521,-2.9811181 0.73371528,-2.9785658 0.26136834,-2.9844917 Z m 0.10307218,0.9128429 C 1.0594723,-2.7662613 1.2743098,-2.0989317 1.44533,-0.88083676 1.5649291,-0.02898989 2.2290687,1.5949683 2.456277,2.1529467 2.9105896,3.2686478 2.7130811,4.5710338 0.46047041,4.6181332 -1.1327696,4.6514457 -2.0728628,4.5068066 -1.868004,2.56992 -1.766336,1.6086755 -1.0382733,-0.28490732 -0.9858285,-0.90415184 -0.86663075,-2.3115886 -0.13957906,-2.7223148 0.36444052,-2.0716488 Z"
     id="path1924"
     inkscape:connector-curvature="0"
     sodipodi:nodetypes="szccssccsscsssssc" />
  <g
     inkscape:groupmode="layer"
     id="layer1"
     inkscape:label="Layer 1" />
  <path
     style="fill:#000000;fill-opacity:1;stroke:none;stroke-width:0.212341px;stroke-linecap:butt;stroke-linejoin:miter;stroke-opacity:1"
     d="M -2.3381654,5.067146 C -1.9721799,5.1891413 -1.1943619,5.0442223 -0.9586813,4.9357663 -0.84430769,4.8831334 -1.3622039,4.4477855 -1.59681,4.5697806 -2.1719578,4.868857 -2.3381654,4.8794607 -2.3381654,5.067146 Z"
     id="path1930"
     inkscape:connector-curvature="0"
     sodipodi:nodetypes="cssc" />
  <path
     style="fill:#000000;fill-opacity:1;stroke:none;stroke-width:0.212341px;stroke-linecap:butt;stroke-linejoin:miter;stroke-opacity:1"
     d="M 2.5992505,5.0816089 C 2.5801946,4.9077227 2.3423921,4.5298 1.915087,4.5888763 1.4877823,4.647952 0.96834284,4.8038476 1.5918001,4.9814509 c 0.6234572,0.177603 0.7540756,0.1470797 1.0074504,0.100158 z"
     id="path1930-5"
     inkscape:connector-curvature="0"
     sodipodi:nodetypes="ccsc" />
  <path
     style="fill:#000000;fill-opacity:1;stroke:none;stroke-width:0.124619px;stroke-linecap:butt;stroke-linejoin:miter;stroke-opacity:1"
     d="m 0.65979501,-0.6004504 c 0.0361887,-0.5681449 0.10853779,-0.7518356 -0.0976309,-0.8987579 -0.20616859,-0.1469223 -0.6611867,0.01138 -0.46664564,0.3383326 0.19454118,0.32695324 0.56427635,0.5604253 0.56427654,0.5604253 z"
     id="path1930-6"
     inkscape:connector-curvature="0" />
</svg>
