<?xml version="1.0" encoding="UTF-8" standalone="no"?>
<svg
   xmlns:dc="http://purl.org/dc/elements/1.1/"
   xmlns:cc="http://creativecommons.org/ns#"
   xmlns:rdf="http://www.w3.org/1999/02/22-rdf-syntax-ns#"
   xmlns:svg="http://www.w3.org/2000/svg"
   xmlns="http://www.w3.org/2000/svg"
   xmlns:sodipodi="http://sodipodi.sourceforge.net/DTD/sodipodi-0.dtd"
   xmlns:inkscape="http://www.inkscape.org/namespaces/inkscape"
   height="1mm"
   version="1.1"
   viewBox="0 0 1 1"
   width="1mm"
   id="svg881"
   sodipodi:docname="penguin.svg"
   inkscape:version="0.92.5 (2060ec1f9f, 2020-04-08)">
  <metadata
     id="metadata887">
    <rdf:RDF>
      <cc:Work
         rdf:about="">
        <dc:format>image/svg+xml</dc:format>
        <dc:type
           rdf:resource="http://purl.org/dc/dcmitype/StillImage" />
        <dc:title />
      </cc:Work>
    </rdf:RDF>
  </metadata>
  <defs
     id="defs885" />
  <sodipodi:namedview
     pagecolor="#ffffff"
     bordercolor="#666666"
     borderopacity="1"
     objecttolerance="10"
     gridtolerance="10"
     guidetolerance="10"
     inkscape:pageopacity="0"
     inkscape:pageshadow="2"
     inkscape:window-width="3821"
     inkscape:window-height="2139"
     id="namedview883"
     showgrid="false"
     inkscape:zoom="22.627417"
     inkscape:cx="1.4781489"
     inkscape:cy="-8.2715241"
     inkscape:window-x="12"
     inkscape:window-y="14"
     inkscape:window-maximized="1"
     inkscape:current-layer="svg881" />
  <path
     style="fill:#000000;fill-opacity:1;stroke:none;stroke-width:0.2511px;stroke-linecap:butt;stroke-linejoin:miter;stroke-opacity:1"
     d="m 0.31912698,-3.7239416 c -0.77983807,-0.00978 -1.59611768,0.4039619 -1.96415138,2.0197507 -0.3680336,1.6157889 -2.4559391,4.1227482 -2.7012237,5.1751574 0.4757503,-0.3424692 1.0179499,-0.9049202 1.4435583,-1.1774675 -0.056919,0.3605872 -0.7700305,2.0744846 0.517259,2.9964926 0.8385891,0.6006309 4.444812,0.3404351 4.968366,0.1409717 C 3.6638899,5.0191417 3.6192286,3.4593314 3.4084782,2.7990086 3.7177307,3.0979026 3.9858883,3.2654464 4.2361196,3.3339267 3.8459195,2.696547 2.2061639,0.32058832 1.9726241,-1.6488498 1.7270288,-3.7199523 0.87769172,-3.7169341 0.31912698,-3.7239416 Z m 0.12188601,0.7547549 c 0.82189641,-0.8214006 1.21124411,0.3059765 1.41348071,1.7464111 0.1414296,1.00733501 0.8329177,2.8984253 1.1278279,3.5469531 0.618416,1.3599395 0.2225012,3.0624058 -2.4412799,3.1181023 -1.8840551,0.039393 -2.9822146,-0.3075316 -2.7399628,-2.5979594 0.1202256,-1.1367011 0.8594158,-3.41650951 0.9214334,-4.1487851 0.140955,-1.6643371 1.1224821,-2.4341545 1.71850069,-1.664722 z"
     id="path1924"
     inkscape:connector-curvature="0"
     sodipodi:nodetypes="szccssccsscsssssc" />
  <g
     inkscape:groupmode="layer"
     id="layer1"
     inkscape:label="Layer 1" />
  <path
     style="fill:#000000;fill-opacity:1;stroke:none;stroke-width:0.2511px;stroke-linecap:butt;stroke-linejoin:miter;stroke-opacity:1"
     d="m -2.7549013,5.7973667 c 0.4327891,0.1442631 1.3525827,-0.027108 1.6312822,-0.1553606 0.1352503,-0.06224 -0.4771778,-0.5770522 -0.7546068,-0.4327893 -0.6801299,0.3536671 -0.8766754,0.3662063 -0.8766754,0.5881499 z"
     id="path1930"
     inkscape:connector-curvature="0"
     sodipodi:nodetypes="cssc" />
  <path
     style="fill:#000000;fill-opacity:1;stroke:none;stroke-width:0.2511px;stroke-linecap:butt;stroke-linejoin:miter;stroke-opacity:1"
     d="M 3.0837443,5.8144695 C 3.0612101,5.6088437 2.7800013,5.1619386 2.2747,5.2317981 1.7693991,5.3016569 1.155146,5.4860083 1.8924033,5.6960296 c 0.7372573,0.210021 0.8917175,0.1739262 1.191341,0.1184399 z"
     id="path1930-5"
     inkscape:connector-curvature="0"
     sodipodi:nodetypes="ccsc" />
  <path
     style="fill:#000000;fill-opacity:1;stroke:none;stroke-width:0.12931752px;stroke-linecap:butt;stroke-linejoin:miter;stroke-opacity:1"
     d="m 0.74228995,-1.015832 c 0.037553,-0.5895634 0.11262956,-0.7801791 -0.10131155,-0.9326402 -0.21394096,-0.1524611 -0.68611282,0.011809 -0.48423775,0.3510875 0.20187521,0.339279 0.58554905,0.5815527 0.5855493,0.5815527 z"
     id="path1930-6"
     inkscape:connector-curvature="0" />
</svg>
