<?xml version="1.0" encoding="UTF-8" standalone="no"?>
<svg
   xmlns:dc="http://purl.org/dc/elements/1.1/"
   xmlns:cc="http://creativecommons.org/ns#"
   xmlns:rdf="http://www.w3.org/1999/02/22-rdf-syntax-ns#"
   xmlns:svg="http://www.w3.org/2000/svg"
   xmlns="http://www.w3.org/2000/svg"
   xmlns:sodipodi="http://sodipodi.sourceforge.net/DTD/sodipodi-0.dtd"
   xmlns:inkscape="http://www.inkscape.org/namespaces/inkscape"
   height="1mm"
   version="1.1"
   viewBox="0 0 1 1"
   width="1mm"
   id="svg881"
   sodipodi:docname="penguin.svg"
   inkscape:version="0.92.5 (2060ec1f9f, 2020-04-08)">
  <metadata
     id="metadata887">
    <rdf:RDF>
      <cc:Work
         rdf:about="">
        <dc:format>image/svg+xml</dc:format>
        <dc:type
           rdf:resource="http://purl.org/dc/dcmitype/StillImage" />
        <dc:title />
      </cc:Work>
    </rdf:RDF>
  </metadata>
  <defs
     id="defs885" />
  <sodipodi:namedview
     pagecolor="#ffffff"
     bordercolor="#666666"
     borderopacity="1"
     objecttolerance="10"
     gridtolerance="10"
     guidetolerance="10"
     inkscape:pageopacity="0"
     inkscape:pageshadow="2"
     inkscape:window-width="1908"
     inkscape:window-height="2139"
     id="namedview883"
     showgrid="false"
     inkscape:zoom="19.555922"
     inkscape:cx="-1.1061966"
     inkscape:cy="-1.5281445"
     inkscape:window-x="1925"
     inkscape:window-y="14"
     inkscape:window-maximized="1"
     inkscape:current-layer="svg881" />
  <path
     style="fill:#000000;fill-opacity:1;stroke:none;stroke-width:0.2511px;stroke-linecap:butt;stroke-linejoin:miter;stroke-opacity:1"
     d="m 0.31912698,-3.7239416 c -0.77983807,-0.00978 -1.59611768,0.4039619 -1.96415138,2.0197507 -0.3680336,1.6157889 -2.4559391,4.1227482 -2.7012237,5.1751574 0.4757503,-0.3424692 1.0179499,-0.9049202 1.4435583,-1.1774675 -0.056919,0.3605872 -0.7700305,2.0744846 0.517259,2.9964926 0.8385891,0.6006309 4.444812,0.3404351 4.968366,0.1409717 C 3.6638899,5.0191417 3.6192286,3.4593314 3.4084782,2.7990086 3.7177307,3.0979026 3.9858883,3.2654464 4.2361196,3.3339267 3.8459195,2.696547 2.2061639,0.32058832 1.9726241,-1.6488498 1.7270288,-3.7199523 0.87769172,-3.7169341 0.31912698,-3.7239416 Z m 0.12188601,1.0794647 C 1.2629094,-3.4658775 1.5169613,-2.6767398 1.7191979,-1.2363052 1.8606275,-0.22897017 2.6459929,1.6914102 2.9146737,2.3512367 3.4519123,3.6705874 3.2183524,5.2106988 0.55457128,5.2663953 -1.3294838,5.3057883 -2.4411729,5.1347482 -2.1989211,2.8443204 c 0.1202256,-1.1367011 0.981182,-3.37592078 1.0431996,-4.1081964 0.140955,-1.6643371 1.0007159,-2.1500334 1.59673449,-1.3806009 z"
     id="path1924"
     inkscape:connector-curvature="0"
     sodipodi:nodetypes="szccssccsscsssssc" />
  <g
     inkscape:groupmode="layer"
     id="layer1"
     inkscape:label="Layer 1" />
  <path
     style="fill:#000000;fill-opacity:1;stroke:none;stroke-width:0.2511px;stroke-linecap:butt;stroke-linejoin:miter;stroke-opacity:1"
     d="m -2.7549013,5.7973667 c 0.4327891,0.1442631 1.3525827,-0.027108 1.6312822,-0.1553606 0.1352503,-0.06224 -0.4771778,-0.5770522 -0.7546068,-0.4327893 -0.6801299,0.3536671 -0.8766754,0.3662063 -0.8766754,0.5881499 z"
     id="path1930"
     inkscape:connector-curvature="0"
     sodipodi:nodetypes="cssc" />
  <path
     style="fill:#000000;fill-opacity:1;stroke:none;stroke-width:0.2511px;stroke-linecap:butt;stroke-linejoin:miter;stroke-opacity:1"
     d="M 3.0837443,5.8144695 C 3.0612101,5.6088437 2.7800013,5.1619386 2.2747,5.2317981 1.7693991,5.3016569 1.155146,5.4860083 1.8924033,5.6960296 c 0.7372573,0.210021 0.8917175,0.1739262 1.191341,0.1184399 z"
     id="path1930-5"
     inkscape:connector-curvature="0"
     sodipodi:nodetypes="ccsc" />
  <path
     style="fill:#000000;fill-opacity:1;stroke:none;stroke-width:0.14736636px;stroke-linecap:butt;stroke-linejoin:miter;stroke-opacity:1"
     d="M 0.79027873,-0.90473974 C 0.833073,-1.5765885 0.91862799,-1.7938084 0.67482714,-1.9675485 c -0.24380068,-0.1737401 -0.78187353,0.013457 -0.55182277,0.4000887 0.23005091,0.3866322 0.66727408,0.66272006 0.66727436,0.66272006 z"
     id="path1930-6"
     inkscape:connector-curvature="0" />
</svg>
